<svg width="512" height="512" fill="none" xmlns="http://www.w3.org/2000/svg"><g clip-path="url(#a)" fill="#3B6072"><path d="M395 512a73.141 73.141 0 0 1-73.14-73.14V73.14A73.142 73.142 0 0 1 395.005-.005 73.144 73.144 0 0 1 468.15 73.14v365.72a73.129 73.129 0 0 1-21.426 51.721A73.139 73.139 0 0 1 395 512ZM117 512a73.142 73.142 0 0 1-73.14-73.14V73.14a73.145 73.145 0 1 1 146.29 0v365.72a73.147 73.147 0 0 1-21.426 51.721A73.124 73.124 0 0 1 117 512Z"/></g><defs><clipPath id="a"><path fill="#fff" d="M0 0h512v512H0z"/></clipPath></defs></svg>