<svg width="512" height="512" fill="none" xmlns="http://www.w3.org/2000/svg"><g clip-path="url(#a)" fill="#3B6072"><path d="M481.76 510.43c17 0 30.24-13.78 30.24-31.36V32.93c0-17.58-13.28-31.36-30.25-31.36a32.728 32.728 0 0 0-16.3 4.49L128.61 229.12c-10.07 5.81-16.08 15.88-16.08 26.88 0 11 6 21.07 16.08 26.87l336.84 223.07a32.72 32.72 0 0 0 16.3 4.49h.01Z"/><path d="M61.94 499.51a61.94 61.94 0 0 0 61.94-61.93V74.42A61.94 61.94 0 0 0 0 74.42v363.16a61.94 61.94 0 0 0 61.94 61.93Z"/></g><defs><clipPath id="a"><path fill="#fff" d="M0 0h512v512H0z"/></clipPath></defs></svg>