<svg width="512" height="512" fill="none" xmlns="http://www.w3.org/2000/svg"><path d="M112 366.25c0-.42 17.35 8.94 38.75 20.92L261 448.81c21.4 12 38.76 1.8 38.76-22.73V85.92c0-24.52-17.35-34.7-38.76-22.73l-110.2 61.64c-21.4 12-38.75 21.34-38.75 20.92 0-.42-19.91-.75-44.43-.75H44.41C19.88 145 0 159.68 0 177.79v156.42C0 352.32 19.88 367 44.41 367h23.21c24.52 0 44.38-.33 44.38-.75ZM445.39 233.8v-44.41a22.202 22.202 0 0 0-22.2-22.2 22.202 22.202 0 0 0-22.2 22.2v44.4h-44.4a22.202 22.202 0 0 0-22.2 22.2 22.202 22.202 0 0 0 22.2 22.2H401v44.41a22.202 22.202 0 0 0 22.2 22.2 22.202 22.202 0 0 0 22.2-22.2v-44.4h44.4A22.202 22.202 0 0 0 512 256a22.202 22.202 0 0 0-22.2-22.2h-44.41Z" fill="#434040"/></svg>