<svg width="512" height="512" fill="none" xmlns="http://www.w3.org/2000/svg"><path d="M117.42 371.57c0-.44 18.19 9.38 40.62 21.92l115.52 64.61c22.43 12.55 40.62 1.88 40.62-23.82V77.73c0-25.73-18.18-36.38-40.62-23.83L158 118.51c-22.44 12.55-40.62 22.36-40.62 21.92 0-.44-20.84-.8-46.55-.8H46.55C20.84 139.64 0 155 0 174v164c0 19 20.84 34.39 46.55 34.39h24.33c25.7-.03 46.54-.39 46.54-.82ZM488.73 232.73H372.37a23.269 23.269 0 0 0-16.454 39.724 23.269 23.269 0 0 0 16.454 6.816h116.36a23.269 23.269 0 0 0 16.454-39.724 23.269 23.269 0 0 0-16.454-6.816Z" fill="#434040"/></svg>