<svg width="266" height="52" fill="none" xmlns="http://www.w3.org/2000/svg"><path d="M15.43 7.502c0-.83.674-1.502 1.507-1.502h.628c.833 0 1.508.673 1.508 1.502v16.903c0 .83-.675 1.503-1.508 1.503h-.628a1.505 1.505 0 0 1-1.508-1.503V7.502ZM38.927 7.502c0-.83.675-1.502 1.508-1.502h.628c.833 0 1.508.673 1.508 1.502v16.903c0 .83-.675 1.503-1.508 1.503h-.628a1.505 1.505 0 0 1-1.508-1.503V7.502Z" fill="#A1B7C2"/><path d="M5 10.507C5 8.018 7.025 6 9.524 6h2.89c.832 0 1.508.673 1.508 1.502V25.72c0 8.263 6.722 14.962 15.015 14.962s15.016-6.699 15.016-14.962V7.502c0-.83.675-1.502 1.508-1.502h3.015C50.975 6 53 8.018 53 10.507V21.4a4.513 4.513 0 0 1-3.644 4.423c-.056 11.19-9.176 20.243-20.419 20.243-11.251 0-20.377-9.068-20.419-20.27A4.513 4.513 0 0 1 5 21.4V10.507Z" fill="#3B6072"/><path d="M79.52 41.4c-2.453 0-4.6-.493-6.44-1.48a10.158 10.158 0 0 1-4.24-4.24c-.987-1.84-1.48-4.013-1.48-6.52V14.72c0-.667.2-1.187.6-1.56.4-.373.947-.56 1.64-.56s1.24.2 1.64.6c.427.373.64.88.64 1.52v14.56c0 2.72.667 4.813 2 6.28 1.36 1.467 3.28 2.2 5.76 2.2s4.4-.733 5.76-2.2c1.36-1.493 2.04-3.587 2.04-6.28V14.72c0-.64.2-1.147.6-1.52.427-.4.987-.6 1.68-.6s1.24.187 1.64.56c.427.373.64.893.64 1.56v14.44c0 2.427-.52 4.573-1.56 6.44-1.013 1.84-2.467 3.267-4.36 4.28-1.867 1.013-4.053 1.52-6.56 1.52Zm19.455 0c-.693 0-1.24-.187-1.64-.56-.4-.373-.6-.893-.6-1.56V23.76c0-3.493 1.08-6.227 3.24-8.2 2.187-1.973 5.187-2.96 9-2.96 2.507 0 4.68.453 6.52 1.36 1.84.88 3.24 2.16 4.2 3.84.987 1.68 1.48 3.667 1.48 5.96v15.52c0 .667-.2 1.187-.6 1.56-.4.373-.947.56-1.64.56s-1.253-.187-1.68-.56c-.4-.4-.6-.92-.6-1.56V23.64c0-2.373-.667-4.2-2-5.48-1.333-1.28-3.227-1.92-5.68-1.92s-4.36.653-5.72 1.96c-1.333 1.28-2 3.093-2 5.44v15.64c0 .64-.213 1.16-.64 1.56-.4.373-.947.56-1.64.56Z" fill="#A1B7C2"/><path d="M128.276 41.4c-.694 0-1.254-.187-1.68-.56-.4-.373-.6-.893-.6-1.56V22.24c0-3.013.853-5.373 2.56-7.08 1.733-1.707 4.093-2.56 7.08-2.56 1.52 0 2.946.387 4.28 1.16a9.307 9.307 0 0 1 3.32 3.2c.853-1.387 1.946-2.453 3.28-3.2 1.333-.773 2.8-1.16 4.4-1.16 3.013 0 5.36.853 7.04 2.56 1.706 1.707 2.56 4.067 2.56 7.08v17.04c0 .64-.214 1.16-.64 1.56-.4.373-.947.56-1.64.56-.694 0-1.254-.187-1.68-.56-.4-.373-.6-.893-.6-1.56V22.24c0-2.053-.414-3.56-1.24-4.52-.8-.96-2.12-1.44-3.96-1.44-1.68 0-2.974.52-3.88 1.56-.907 1.04-1.36 2.507-1.36 4.4v17.04c0 .667-.214 1.187-.64 1.56-.4.373-.947.56-1.64.56-.694 0-1.24-.187-1.64-.56-.374-.373-.56-.893-.56-1.56V22.24c0-1.867-.467-3.32-1.4-4.36-.934-1.067-2.214-1.6-3.84-1.6-1.867 0-3.214.48-4.04 1.44-.8.96-1.2 2.467-1.2 4.52v17.04c0 .64-.214 1.16-.64 1.56-.4.373-.947.56-1.64.56Zm49.252 0c-2.454 0-4.6-.493-6.44-1.48a10.154 10.154 0 0 1-4.24-4.24c-.987-1.84-1.48-4.013-1.48-6.52V14.72c0-.667.2-1.187.6-1.56.4-.373.946-.56 1.64-.56.693 0 1.24.2 1.64.6.426.373.64.88.64 1.52v14.56c0 2.72.666 4.813 2 6.28 1.36 1.467 3.28 2.2 5.76 2.2s4.4-.733 5.76-2.2c1.36-1.493 2.04-3.587 2.04-6.28V14.72c0-.64.2-1.147.6-1.52.426-.4.986-.6 1.68-.6.693 0 1.24.187 1.64.56.426.373.64.893.64 1.56v14.44c0 2.427-.52 4.573-1.56 6.44-1.014 1.84-2.467 3.267-4.36 4.28-1.867 1.013-4.054 1.52-6.56 1.52Zm30.215 0c-2.56 0-4.974-.44-7.24-1.32-2.24-.88-4.12-2.107-5.64-3.68a1.52 1.52 0 0 1-.52-1.16c0-.56.24-1.053.72-1.48.346-.347.733-.52 1.16-.52.56 0 1.133.28 1.72.84 1.2 1.173 2.64 2.08 4.32 2.72 1.706.613 3.533.92 5.48.92 1.973 0 3.493-.347 4.56-1.04 1.093-.693 1.64-1.667 1.64-2.92 0-1.227-.56-2.213-1.68-2.96-1.12-.773-3.027-1.453-5.72-2.04-3.974-.853-6.854-1.973-8.64-3.36-1.787-1.413-2.68-3.227-2.68-5.44 0-1.44.453-2.72 1.36-3.84.933-1.12 2.226-1.987 3.88-2.6 1.68-.613 3.613-.92 5.8-.92 2.453 0 4.653.413 6.6 1.24 1.973.827 3.426 1.973 4.36 3.44.266.427.4.84.4 1.24 0 .587-.294 1.08-.88 1.48-.347.213-.694.32-1.04.32-.32 0-.64-.08-.96-.24a2.358 2.358 0 0 1-.8-.64c-.774-1.013-1.84-1.787-3.2-2.32-1.334-.56-2.827-.84-4.48-.84-2.08 0-3.68.32-4.8.96-1.094.613-1.64 1.52-1.64 2.72 0 1.12.533 2.04 1.6 2.76 1.066.693 2.946 1.347 5.64 1.96 4.08.96 7.013 2.147 8.8 3.56 1.786 1.413 2.68 3.253 2.68 5.52 0 1.52-.454 2.867-1.36 4.04-.88 1.147-2.134 2.04-3.76 2.68-1.627.613-3.52.92-5.68.92Zm18.805 0c-.694 0-1.254-.187-1.68-.56-.4-.373-.6-.893-.6-1.56V14.72c0-.667.2-1.187.6-1.56.426-.373.986-.56 1.68-.56.666 0 1.213.2 1.64.6.426.373.64.88.64 1.52v24.56c0 .64-.214 1.16-.64 1.56-.427.373-.974.56-1.64.56Zm22.39 0c-2.933 0-5.493-.573-7.68-1.72a12.204 12.204 0 0 1-5-5c-1.147-2.16-1.72-4.707-1.72-7.64s.573-5.48 1.72-7.64c1.173-2.187 2.84-3.867 5-5.04s4.707-1.76 7.64-1.76c2.4 0 4.627.413 6.68 1.24s3.6 1.947 4.64 3.36c.293.427.44.813.44 1.16 0 .587-.307 1.107-.92 1.56-.347.213-.707.32-1.08.32-.347 0-.693-.08-1.04-.24-.32-.16-.6-.373-.84-.64a7.863 7.863 0 0 0-3.28-2.36c-1.28-.507-2.813-.76-4.6-.76-3.067 0-5.467.96-7.2 2.88-1.707 1.893-2.56 4.533-2.56 7.92 0 3.333.867 5.96 2.6 7.88 1.733 1.893 4.133 2.84 7.2 2.84 3.627 0 6.413-1.04 8.36-3.12.64-.64 1.293-.96 1.96-.96.427 0 .813.133 1.16.4.533.453.8.947.8 1.48 0 .453-.16.88-.48 1.28-1.147 1.413-2.76 2.533-4.84 3.36-2.08.8-4.4 1.2-6.96 1.2Z" fill="#3B6072"/></svg>