<svg width="404" height="100" fill="none" xmlns="http://www.w3.org/2000/svg"><g clip-path="url(#a)"><path d="M134.665 72v-4.39l22.947-33.579h-23.139v-5.667h31.193v4.389l-22.947 33.58h23.139V72h-31.193Zm53.043.66c-3.224 0-6.001-.688-8.331-2.066-2.315-1.392-4.105-3.345-5.369-5.86-1.25-2.528-1.875-5.49-1.875-8.885 0-3.352.625-6.306 1.875-8.863 1.264-2.557 3.025-4.553 5.284-5.987 2.273-1.435 4.929-2.152 7.969-2.152 1.846 0 3.636.305 5.369.916 1.733.61 3.288 1.57 4.666 2.876 1.378 1.307 2.465 3.005 3.26 5.092.796 2.074 1.193 4.596 1.193 7.564v2.259h-26.015v-4.773h19.772c0-1.676-.341-3.16-1.022-4.453a7.735 7.735 0 0 0-2.877-3.09c-1.221-.752-2.656-1.129-4.304-1.129-1.79 0-3.352.44-4.687 1.321a8.862 8.862 0 0 0-3.068 3.41c-.711 1.391-1.066 2.904-1.066 4.538v3.728c0 2.188.384 4.049 1.151 5.583.781 1.534 1.868 2.706 3.26 3.515 1.392.796 3.018 1.194 4.879 1.194 1.207 0 2.308-.17 3.303-.512a7.141 7.141 0 0 0 2.578-1.576c.724-.696 1.278-1.556 1.662-2.579l6.029 1.087a10.91 10.91 0 0 1-2.599 4.666c-1.236 1.321-2.791 2.351-4.666 3.09-1.861.724-3.985 1.087-6.371 1.087Zm27.481-20.092V72h-6.371V39.273h6.115v5.326h.405c.753-1.732 1.932-3.125 3.537-4.176 1.619-1.05 3.657-1.576 6.115-1.576 2.23 0 4.183.468 5.859 1.406 1.676.923 2.976 2.301 3.899 4.133.924 1.833 1.385 4.098 1.385 6.797V72h-6.371V51.95c0-2.372-.617-4.226-1.853-5.56-1.236-1.35-2.934-2.025-5.093-2.025-1.477 0-2.791.32-3.941.959-1.137.64-2.039 1.577-2.706 2.812-.654 1.222-.98 2.7-.98 4.432Z" fill="#3B6072"/><path d="M280.409 28.364V72h-6.051l-22.181-32.003h-.405V72h-6.583V28.364h6.093l22.202 32.045h.405V28.364h6.52Zm22.878 44.296c-3.068 0-5.746-.703-8.033-2.109-2.287-1.406-4.062-3.373-5.326-5.902-1.265-2.528-1.897-5.483-1.897-8.864 0-3.394.632-6.363 1.897-8.906 1.264-2.542 3.039-4.517 5.326-5.923 2.287-1.406 4.965-2.11 8.033-2.11 3.068 0 5.746.704 8.033 2.11 2.287 1.406 4.062 3.38 5.326 5.923 1.265 2.543 1.897 5.512 1.897 8.907 0 3.38-.632 6.335-1.897 8.863-1.264 2.529-3.039 4.496-5.326 5.902-2.287 1.406-4.965 2.11-8.033 2.11Zm.021-5.347c1.989 0 3.637-.526 4.943-1.577 1.307-1.051 2.273-2.45 2.898-4.198.639-1.747.959-3.671.959-5.774 0-2.088-.32-4.006-.959-5.753-.625-1.761-1.591-3.174-2.898-4.24-1.306-1.065-2.954-1.598-4.943-1.598-2.003 0-3.665.533-4.986 1.598-1.306 1.066-2.279 2.479-2.919 4.24-.625 1.747-.937 3.665-.937 5.753 0 2.102.312 4.027.937 5.774.64 1.748 1.613 3.147 2.919 4.198 1.321 1.05 2.983 1.576 4.986 1.576ZM325.654 72V39.273h6.371V72h-6.371Zm3.217-37.777c-1.108 0-2.06-.37-2.855-1.108-.781-.753-1.172-1.648-1.172-2.685 0-1.05.391-1.946 1.172-2.684.795-.753 1.747-1.13 2.855-1.13 1.108 0 2.053.377 2.834 1.13.795.738 1.193 1.633 1.193 2.684 0 1.037-.398 1.932-1.193 2.685-.781.739-1.726 1.108-2.834 1.108Zm36.248 13.04-5.774 1.023a6.84 6.84 0 0 0-1.15-2.11c-.512-.668-1.208-1.214-2.088-1.64-.881-.427-1.982-.64-3.303-.64-1.804 0-3.31.405-4.517 1.215-1.207.795-1.811 1.825-1.811 3.09 0 1.093.405 1.974 1.214 2.641.81.668 2.117 1.215 3.921 1.641l5.199 1.193c3.011.696 5.255 1.769 6.733 3.218 1.477 1.448 2.216 3.33 2.216 5.646 0 1.96-.569 3.707-1.705 5.241-1.122 1.52-2.692 2.713-4.709 3.58-2.003.866-4.325 1.3-6.967 1.3-3.665 0-6.655-.782-8.97-2.344-2.316-1.577-3.736-3.814-4.262-6.712l6.158-.937c.384 1.605 1.172 2.82 2.365 3.643 1.193.81 2.749 1.215 4.666 1.215 2.088 0 3.757-.434 5.007-1.3 1.25-.88 1.875-1.953 1.875-3.218 0-1.022-.383-1.882-1.15-2.578-.753-.696-1.911-1.221-3.473-1.576l-5.54-1.215c-3.054-.696-5.313-1.804-6.776-3.324-1.448-1.52-2.173-3.444-2.173-5.774 0-1.932.54-3.622 1.619-5.07 1.08-1.45 2.571-2.579 4.475-3.389 1.903-.824 4.084-1.235 6.541-1.235 3.537 0 6.321.767 8.352 2.3 2.032 1.52 3.374 3.559 4.027 6.116Zm21.749 25.398c-3.224 0-6.001-.69-8.331-2.067-2.315-1.392-4.105-3.345-5.369-5.86-1.25-2.528-1.875-5.49-1.875-8.885 0-3.352.625-6.306 1.875-8.863 1.264-2.557 3.026-4.553 5.284-5.987 2.273-1.435 4.929-2.152 7.969-2.152 1.846 0 3.636.305 5.369.916 1.733.61 3.288 1.57 4.666 2.876 1.378 1.307 2.465 3.005 3.26 5.092.796 2.074 1.193 4.596 1.193 7.564v2.259h-26.015v-4.773h19.773c0-1.676-.341-3.16-1.023-4.453a7.735 7.735 0 0 0-2.877-3.09c-1.221-.752-2.656-1.129-4.304-1.129-1.789 0-3.352.44-4.687 1.321a8.862 8.862 0 0 0-3.068 3.41c-.71 1.391-1.066 2.904-1.066 4.538v3.728c0 2.188.384 4.049 1.151 5.583.781 1.534 1.868 2.706 3.26 3.515 1.392.796 3.018 1.194 4.879 1.194 1.208 0 2.308-.17 3.303-.512a7.141 7.141 0 0 0 2.578-1.576c.724-.696 1.278-1.556 1.662-2.579l6.03 1.087a10.922 10.922 0 0 1-2.6 4.666c-1.236 1.321-2.791 2.351-4.666 3.09-1.861.724-3.984 1.087-6.371 1.087Z" fill="#AEBCC2"/><g clip-path="url(#b)"><path d="M50 0C22.386 0 0 22.386 0 50s22.386 50 50 50 50-22.386 50-50S77.614 0 50 0Z" fill="#3B6072"/><path d="m76.277 22.305-34.92 7.058v33.395a12.345 12.345 0 0 0-6.95-2.049c-5.902 0-10.684 3.8-10.684 8.494s4.782 8.494 10.683 8.494c5.902 0 10.683-3.8 10.683-8.494V43.337l27.125-4.275v19.579a12.52 12.52 0 0 0-6.619-1.84c-5.901 0-10.682 3.8-10.682 8.494s4.78 8.494 10.682 8.494 10.683-3.8 10.683-8.494a7.971 7.971 0 0 0-.07-.945h.07l-.001-42.045Z" fill="#CFD9DE"/></g></g><defs><clipPath id="a"><path fill="#fff" d="M0 0h404v100H0z"/></clipPath><clipPath id="b"><path fill="#fff" d="M0 0h100v100H0z"/></clipPath></defs></svg>